<svg width="100" height="100" viewBox="0 0 10 10" stroke-linecap="round" stroke="black">
  <g id="vas-cross">
    <line x1="1" y1="1" x2="9" y2="9"/>
    <line x1="9" y1="1" x2="1" y2="9"/>
  </g>
  <line id="vas-line" x1="5" y1="1" x2="5" y2="9"/>
  <circle id="vas-point" cx="5" cy="5" r="1" fill="red"/>
  <g id="vas-arrow-down" stroke="green">
    <line x1="5" y1="1" x2="5" y2="5"/>
    <line x1="3" y1="3" x2="5" y2="5"/>
    <line x1="7" y1="3" x2="5" y2="5"/>
  </g>
  <g id="vas-arrow-up" stroke="magenta">
    <line x1="5" y1="9" x2="5" y2="5"/>
    <line x1="3" y1="7" x2="5" y2="5"/>
    <line x1="7" y1="7" x2="5" y2="5"/>
  </g>
  <g id="vas-arrow-right" stroke="purple">
    <line x1="1" y1="5" x2="5" y2="5"/>
    <line x1="3" y1="7" x2="5" y2="5"/>
    <line x1="3" y1="3" x2="5" y2="5"/>
  </g>
  <g id="vas-arrow-left" stroke="orange">
    <line x1="9" y1="5" x2="5" y2="5"/>
    <line x1="7" y1="3" x2="5" y2="5"/>
    <line x1="7" y1="7" x2="5" y2="5"/>
  </g>
</svg>