<?xml version="1.0" encoding="utf-8"?>
<!-- Generator: Adobe Illustrator 18.1.1, SVG Export Plug-In . SVG Version: 6.00 Build 0)  -->
<svg version="1.1" id="Layer_1" xmlns="http://www.w3.org/2000/svg" xmlns:xlink="http://www.w3.org/1999/xlink" x="0px" y="0px"
	 viewBox="0 0 1000 1000" enable-background="new 0 0 1000 1000" xml:space="preserve">
<line id="vas-line" fill="none" stroke="#000000" stroke-miterlimit="10" x1="887" y1="500" x2="113" y2="500"/>
<line id="max-line" fill="none" stroke="#000000" stroke-miterlimit="10" x1="887" y1="533" x2="887" y2="467"/>
<line id="min-line" fill="none" stroke="#000000" stroke-miterlimit="10" x1="113" y1="533" x2="113" y2="467"/>
<text transform="matrix(1 0 0 1 101 573)" font-family="'MyriadPro-Regular'" font-size="48">0</text>
<text transform="matrix(1 0 0 1 855 573)" font-family="'MyriadPro-Regular'" font-size="48">10</text>
<g id="hand" ng-attr-style="transform: translateX({{handOffset}}px);">
	<path fill-rule="evenodd" clip-rule="evenodd" fill="none" d="M364.4,656.4c-1.2,0.6-2.4,1.2-3.3,2.3c-0.2,0.2-0.4,0.4-0.7,0.6
		c-0.7,0.4-1.4,0.8-2.1,1.2c-1.6,0.9-3.3,1.9-5,2.6c-0.1,0.1-0.2,0.1-0.3,0.2c-0.3,0.2-0.5,0.5-0.3,0.9c0.2,0.4,0.5,0.2,0.8,0.1
		c2.3-1,4.6-2,6.7-3.4c2.4-1.5,5-2.5,7.7-3.1c1.8-0.5,3.6-1.2,5.5-1.6c0.2,0,0.5-0.1,0.4-0.3c0-0.2-0.3-0.2-0.5-0.2
		c-1.1,0-2.1,0-3.1,0.3c-2.1,0.5-4.1,1.2-6.1,1.8c-0.5,0.2-1,0.4-1.5,0.4C363.2,657.5,363.9,657.1,364.4,656.4z M336.8,567.4
		c-0.5,0.3-0.7,0.7-0.5,1.2c0.7,2.4,1.1,4.9,1.3,7.5c0.1,1.4-0.1,2.9-0.9,4.1c-0.6,0.9-1.2,1.9-1.8,2.8c-0.7,1.2-1.4,2.4-2,3.7
		c-0.1,0.2-0.1,0.4,0.1,0.6c0.2,0.2,0.4,0.2,0.7,0.1c0.3-0.2,0.6-0.3,0.8-0.6c0.6-1,1.2-2,1.7-3.1c0.4-0.9,0.8-1.8,1.3-2.7
		c0.9-2.1,1.7-4.2,1.4-6.5c-0.3-2.1-0.3-4.3-1.9-6C336.6,568.2,336.5,567.8,336.8,567.4z M326.7,537.9c0.9-0.1,1.6-0.2,2.4-0.3
		c1-0.1,2-0.2,3-0.6c0.1,0,0.3,0,0.3-0.2c0-0.2-0.1-0.2-0.3-0.2c-0.4-0.1-0.8-0.1-1.3-0.1c-2,0.1-4,0.3-6,0.5
		c-1.2,0.2-2.5,0.2-3.6,0.9c-0.2,0.1-0.4,0.1-0.4-0.2c0-0.1,0-0.3,0-0.4c0.2-1.3,0.3-2.6,0.6-3.9c0-0.1,0-0.1,0-0.2
		c0-0.2-0.1-0.3-0.3-0.4c-0.2,0-0.2,0.2-0.3,0.3c-0.3,0.7-0.4,1.4-0.6,2.2c-0.4,1.7-0.7,3.5-0.8,5.3c0,0.2-0.1,0.5,0.1,0.6
		c0.3,0.1,0.4-0.2,0.5-0.4c0.3-0.5,0.7-0.9,0.9-1.5c0.1-0.4,0.5-0.6,0.9-0.7C323.6,538.1,325.2,538,326.7,537.9z M362.9,578.5
		c0-0.1,0-0.1,0-0.2c0-0.2,0.1-0.5-0.1-0.5c-0.2,0-0.3,0.2-0.4,0.4c0,0,0,0.1,0,0.1c-1.2,2.8-2.1,5.7-3.1,8.6
		c-0.1,0.2-0.1,0.5-0.1,0.7c0,0.2,0.2,0.4,0.4,0.2c0.5-0.5,1.1-0.9,1.3-1.7c0.1-0.5,0.4-1,0.6-1.6
		C362.3,582.7,362.7,580.6,362.9,578.5z M359.1,656.8c0.2,0.1,0.3,0,0.4,0c2.2-0.9,4.5-1.6,6.7-2.4c1.4-0.5,2.7-1,4-1.6
		c0.1-0.1,0.4-0.1,0.3-0.3c-0.1-0.2-0.3-0.2-0.5-0.2c-0.5,0-0.9,0.2-1.3,0.4c-1.2,0.6-2.4,0.9-3.7,1.1c-2.3,0.3-4.1,1.5-5.9,2.9
		C359.2,656.7,359.1,656.8,359.1,656.8z M323.9,542.2c0.2,0.4,0.4,0.4,0.6,0.5c0.9,0.4,1.8,0.3,2.7,0.1c1.6-0.2,3.2-0.5,4.6-1.6
		c0.1-0.1,0.4-0.2,0.3-0.4c-0.1-0.2-0.3-0.1-0.5-0.1c-0.1,0-0.2,0.1-0.3,0.1c-1.6,0.6-3.2,1-4.8,1.3
		C325.6,542.3,324.8,542.5,323.9,542.2z M279.7,588.2c0.2,0.1,0.4,0,0.6-0.1c0.7-0.2,1.1-0.8,1.6-1.3c1-1,1.9-2,2.9-3
		c0.2-0.2,0.3-0.5,0.1-0.7c-0.2-0.3-0.4,0-0.6,0.2c-0.8,0.6-1.4,1.3-2.1,2C281.3,586.2,280.4,587.1,279.7,588.2z M376.7,585.8
		c-0.5,2.9-1.3,5.6-1.9,8.4C376.3,591.6,377.2,588.9,376.7,585.8z M335.3,541c0-0.2,0-0.3,0-0.5c0-0.2-0.1-0.5-0.4-0.5
		c-0.3-0.1-0.3,0.2-0.4,0.4c-0.5,1.2-1,2.4-1.2,3.8c0,0.2-0.2,0.4,0,0.5c0.2,0.1,0.3-0.2,0.5-0.3c0.3-0.4,0.4-0.8,0.8-1.2
		C335.2,542.6,335.5,541.9,335.3,541z M360.5,574c-0.1,0.3,0,0.5,0.1,0.7c0.5,1.1,0.7,2.2,0.9,3.3c0,0.2,0.1,0.4,0.1,0.6
		c0,0.1,0.1,0.2,0.2,0.2c0.1,0,0.1-0.1,0.2-0.2C362.4,577,361.9,575.2,360.5,574z M326.6,540.2c0.5,0.2,0.9,0.3,1.3,0.2
		c1.4-0.1,2.7-0.3,3.9-1c0.2-0.1,0.4-0.1,0.3-0.4c-0.1-0.2-0.3-0.2-0.5-0.1c-1.1,0.3-2.2,0.6-3.3,0.8
		C327.7,539.9,327.2,540,326.6,540.2z M326.9,582.1c-0.1-0.3-0.1-0.6-0.2-0.9c-0.3-0.9-0.4-1.9-1-2.7c-0.1-0.2-0.3-0.4-0.5-0.3
		c-0.3,0.1-0.1,0.4-0.1,0.5c0.3,0.8,0.5,1.5,0.8,2.3c0.2,0.4,0.3,0.8,0.5,1.2c0.1,0.1,0.2,0.2,0.3,0.2
		C326.9,582.3,326.9,582.2,326.9,582.1z M326,543.8c0.1,0.2,0.3,0.3,0.5,0.4c1.2,0.5,2.3,0.3,3.4-0.3c0.2-0.1,0.5-0.2,0.4-0.5
		c-0.1-0.3-0.4-0.1-0.6,0c-1,0.3-1.9,0.5-3,0.3C326.5,543.7,326.3,543.6,326,543.8z M329,535.6c-1.3-0.4-2.6-0.3-3.8,0.1
		C326.4,535.7,327.6,536.1,329,535.6z"/>
	<path fill-rule="evenodd" clip-rule="evenodd" fill="#393B41" d="M406.9,681.7c-0.6-1.4-4.1-6-4.2-7.4c0-0.2-0.2-0.3-0.3-0.4
		c-1.3-2-7.6-13.5-8.2-15.2c-0.9-2.5-4.7-8.3-5.2-8.7c-0.2-0.2-0.5-0.4-0.3-0.6c0.1-0.3,0.1-0.5,0.1-0.8c0-1.1-0.1-2.2,0.3-3.3
		c0.4-1.3,4.7-51.5,4.5-52.6c-0.5-2.6-0.8-5.2-0.8-7.9c0-1.5,0.2-3.1,0.2-4.6c-0.1-3.1-0.7-6-2-8.8c-0.4-0.8-2.7-4-5.3-5.1
		c-1.4-0.6-2.8-0.9-4.3-0.7c-0.4,0.1-0.6-0.1-0.7-0.5c-0.2-1.5-0.6-2.9-0.6-4.4c-0.1-1.5-1.5-6.1-5.6-8.7c-1.7-1.1-3.7-1.7-5.7-1.7
		c-1.4,0-2.6,0.4-3.4,1.7c-0.5,0.7-1,1.4-1.4,2.2c-0.1,0.1-0.1,0.3-0.3,0.3c-0.2,0-0.1-0.2-0.2-0.3c-0.1-0.8-0.3-1.5-0.6-2.2
		c-0.5-1.3-1.2-2.3-2.4-3.1c-2.1-1.3-4.4-2.1-6.7-2.9c-1.2-0.4-2.5-0.3-3.7,0c-1.5,0.3-2.7,1.3-4,2.2c-0.4,0.2-0.7,0.6-0.9,1
		c-2.2,3.4-3.4,7.3-4.3,11.2c-0.5,2.1-1,4.1-0.8,6.3c0,0.1,0.1,0.4-0.1,0.4c-0.2,0-0.3-0.2-0.4-0.3c-0.8-1-1.1-2.2-1.4-3.4
		c-0.5-2.4-0.6-4.9-0.6-7.4c0-4.2-0.6-16-0.8-17.4c-0.3-2.2-0.2-4.5-0.4-6.8c-0.2-2.1-0.3-21.7-0.6-24.9c-0.1-1.2-0.3-2.5-1-3.5
		c-1.1-1.6-2.5-2.9-4.5-3.2c-1.1-0.1-2,0.1-3,0.5c-1.3,0.5-2.5,1.3-3.3,2.5c-0.2,0.2-0.3,0.5-0.4,0.7c-1.2,1.6-2.2,3.4-2.8,5.4
		c-0.7,2.2-1.3,4.5-1.8,6.8c-1.4,6.3-1.8,12.7-1.9,19.1c0,2.1-0.6,16.1-0.3,21.3c0.3,5.7-0.2,11.3-1.2,16.9
		c-1,5.5-2.4,10.9-4.1,16.2c-1,3.2-2,6.5-3.9,9.4c-0.6,0.9-1.4,1.1-2.1,0.3c-1.7-1.8-3.1-3.8-4.2-5.9c-1.5-2.6-2.3-5.5-3-8.4
		c-0.4-1.7-0.7-3.4-1-5.1c-0.1-1-0.4-2-0.7-2.9c0-0.1-0.1-0.3-0.2-0.4c-0.8-0.8-1.3-1.9-2-2.8c-1.1-1.6-2.4-3.1-3.9-4.4
		c-1.2-1.1-2.4-2.3-3.8-3.2c-1.8-1.2-3.7-2.3-5.9-2.8c-0.7-0.2-1.4-0.7-2.2-0.6c-2.4,0.2-4.3,1.4-5.4,3.6c-0.3,0.7-0.6,1.4-0.8,2.1
		c-0.2,0.7-0.2,1.4,0,2.1c0.5,1.4,1,2.7,1.4,4.1c0.6,2,1.1,4.1,1.7,6.2c0.5,1.8,0.9,3.6,1.2,5.5c0.3,2,1.4,3.7,2.3,5.4
		c1.4,2.7,3,5.4,3.8,8.4c0.9,3.2,2.1,6.3,2.9,9.6c0.7,2.8,1.3,5.7,1.7,8.6c0.2,1.1,0.3,2.3,0.7,3.3c0.5,1.6,1.2,3.1,1.8,4.7
		c0.7,1.8,1.6,3.4,2.8,4.8c1.2,1.5,2.5,3,3.8,4.4c0.7,0.8,1.3,1.7,2,2.5c2.7,3,4.9,6.3,7.3,9.6c1.6,2.2,3.3,4.3,4.9,6.4
		c1.2,1.6,2.7,2.9,4.2,4.1c1,0.8,2.1,1.6,3.2,2.3c2,1.1,3.8,2.4,5,4.4c1,1.7,2,3.4,2.8,5.2c0.3,0.8,0.7,1.6,1,2.4
		c0.8,1.6,1.6,3.1,2.3,4.7c0.4,0.8,0.8,1.7,1.3,2.4c0.1,0.2,0.3,0.4,0.6,0.2c0.4-0.3,0.6-0.8,0.3-1.3c-0.2-0.5-0.4-1-0.6-1.5
		c-0.4-1.3-1.1-2.6-1.7-3.8c-0.3-0.7-0.7-1.3-1-2c-0.8-2.2-2-4.2-3.1-6.2c-0.9-1.5-1.8-2.9-2.7-4.4c-0.8-1.2-1.4-2.4-2.3-3.5
		c-0.4-0.4-0.8-0.9-1.2-1.2c-0.2-0.2-0.4-0.2-0.6-0.1c-0.2,0.1-0.2,0.4-0.2,0.6c0.1,0.3,0.2,0.6,0.3,0.9c0.3,0.5,0.6,1,0.9,1.6
		c-0.7,0-0.7,0-0.9-0.2c-1.7-1.3-3.5-2.6-5-4.2c-1.2-1.3-2.4-2.6-3.4-4c-1-1.3-1.9-2.8-3.1-3.9c-0.8-0.8-1.4-1.7-2.1-2.6
		c-1.5-2.1-2.8-4.3-4.5-6.3c-1.1-1.3-1.9-2.8-3.1-4.1c-1-1-1.8-2.1-2.6-3.2c-1.1-1.4-2.2-2.8-2.9-4.4c-0.3-0.7-0.6-1.3-0.9-2
		c-0.5-1.2-1.2-2.4-1.4-3.7c-0.3-2-0.7-4-1.3-5.9c-0.6-2-1-4-1.3-6.1c-0.3-1.8-0.7-3.6-1.5-5.3c-0.3-0.7-0.6-1.4-0.7-2.2
		c-0.4-1.9-1-3.7-1.8-5.5c-0.3-0.5-0.3-1,0.3-1.4c0.3-0.2,0.5-0.5,0.8-0.8c0.1-0.1,0.3-0.3,0.2-0.5c0-0.2,0.1-0.4-0.1-0.5
		c-0.2-0.1-0.3,0.1-0.4,0.2c-0.3,0.3-0.7,0.6-1,1c-0.3,0.3-0.5,0.3-0.7,0c-0.2-0.4-0.5-0.7-0.7-1.1c-0.2-0.3-0.2-0.6,0.2-0.8
		c0.4-0.2,0.7-0.4,1-0.6c1-0.6,1.9-1.3,2.8-2c0.2-0.2,0.3-0.3,0.1-0.6c-0.2-0.3-0.4-0.1-0.5,0c-0.3,0.2-0.6,0.4-0.9,0.6
		c-1,0.7-2,1.3-3,2c-0.4,0.3-0.6,0.3-0.9-0.1c-0.3-0.4-0.5-0.7-0.8-1.1c-0.3-0.5-0.3-1,0-1.5c1.4-2,3.1-3.9,5.2-5.2
		c0.3-0.2,0.5-0.3,0.8-0.5c0.2-0.1,0.2-0.3,0.1-0.5c-0.1-0.2-0.3-0.1-0.4-0.1c-0.4,0.2-0.9,0.2-1.2,0.5c-1.8,1.3-3.4,2.8-4.7,4.6
		c-0.1,0.1-0.2,0.4-0.4,0.4c-0.2-0.1-0.1-0.3-0.2-0.5c-0.1-1.8-0.4-3.6-1-5.3c-0.2-0.7-0.4-1.5-0.6-2.3c-0.1-0.4-0.1-0.7,0.5-0.7
		c0.5,0,1.1-0.2,1.5-0.5c1.9-1.2,3.3-2.9,4.3-4.9c0.1-0.2,0.1-0.5,0.1-0.7c-0.3-2.1-1.1-4.1-2.1-6c-0.3-0.7-0.9-1-1.5-1.1
		c-0.4-0.1-0.9-0.1-1.3-0.1c-0.6,0-1.2,0.1-1.9,0.2c1.1-0.8,2.3-1.4,3.7-1.1c0.9,0.2,1.6,0.5,2.4,1c3.9,2.3,7.4,5.1,10.2,8.7
		c0.9,1.1,1.8,2.3,2.3,3.7c1.3,3.3,2.2,6.7,2.9,10.1c0.4,1.8,0.6,3.7,1.4,5.4c1.5,3.4,3.9,6.2,6.6,8.7c-0.6,0.7-1.2,1.2-1.9,1.7
		c-0.3,0.2-0.5,0.4-0.7,0.6c-0.1,0.1-0.1,0.2-0.1,0.3c0.1,0.1,0.2,0,0.3,0c0.2-0.1,0.5-0.2,0.7-0.3c1.2-0.7,2.3-1.6,3.4-2.5
		c0.2-0.2,0.4-0.5,0.6-0.7c2.3-4.2,4.2-8.5,5.6-13.1c2-6.5,3.2-13.2,3.7-20c0.3-3.9,0.5-7.9,0.5-11.8c0.1-5.1,0.3-19,0.3-21
		c0-3.1,0.2-6.2,0.5-9.3c0.6-6,1.7-11.9,3.9-17.5c0.3-0.8,0.8-1.4,1.1-2.1c0.3-1.1,1.2-1.9,1.7-2.9c0-0.1,0.1-0.1,0.2-0.1
		c0.7-0.4,1.4-0.8,2.2-1c1.5-0.4,2.9-0.2,4.2,0.7c0.2,0.2,0.5,0.4,0.6,0.7c-0.1,0.1-0.2,0.1-0.2,0c-1-0.7-2.1-0.5-3.2-0.5
		c-1,0-1.9,0.4-2.9,0.5c-0.5,0.1-0.7,0.3-0.8,0.7c-0.4,1.3-0.8,2.6-1.1,4c-0.2,0.9-0.4,1.8,0.2,2.7c0.5,0.9,1.3,1.3,2.3,1.6
		c1.6,0.6,3.2,0.9,5,0.4c0.6-0.2,1.1-0.5,1.7-0.8c0.5-0.2,0.7-0.6,0.7-1.1c-0.1-1.4-0.1-2.7-0.1-4.1c0-0.2,0-0.4,0.2-0.6
		c0.1,0.2,0.1,0.3,0.2,0.5c0,0.1,0,0.3,0.1,0.4c2,4.8,0.8,23.9,0.9,27.6c0,0.3,0,0.6,0,0.9c-0.2-0.4-0.4-0.8-0.4-1.3
		c-0.1-0.5-0.4-1-0.6-1.4c-0.2-0.2-0.4-0.5-0.7-0.4c-0.3,0.1-0.1,0.5-0.1,0.7c0.4,1.3,0.7,2.7,0.8,4.1c0,0.7,0.1,1.4,0.3,2.1
		c0.1,0.6,0.3,0.7,0.8,0.3c0.2-0.2,0.3-0.2,0.4,0.1c0,0.2,0.1,0.4,0.1,0.5c0.2,1.3,0.8,5.3,0.6,20.5c0,2.5,0.8,4.9,2.2,7
		c0.1,0.1,0.2,0.2,0.3,0.3c2.1,1.1,5.2,0.6,6.5-1.7c0.1-0.2,0.1-0.3-0.1-0.4c-0.4-0.2-0.7,0.1-1.2,0.1c0.6-1.4,1.1-2.9,1.4-4.4
		c0.1-0.9,0.4-1.8,0.5-2.7c0.1-0.7,0.2-1.4-0.1-2.1c0-0.1-0.1-0.3-0.2-0.3c-0.2,0-0.2,0.2-0.3,0.3c-0.1,0.2-0.1,0.4-0.2,0.5
		c-0.5,1.4-0.7,2.9-1.1,4.4c-0.3,1.7-1,3.2-1.5,4.8c-0.1,0.5-0.6,0.6-0.9,0.5c-0.4-0.1-0.2-0.4-0.2-0.7c0-0.2,0-0.4,0.1-0.7
		c0.4-2.4,1-4.7,1.7-7.1c0.7-2.3,1.5-4.6,2.5-6.8c0.9-1.9,2.2-3.4,4.2-4.2c1.1-0.4,2.2-0.7,3.4-0.4c1.5,0.3,2.9,0.9,4.3,1.5
		c1,0.4,1.7,1,2.4,1.7c0.7,0.7,1.2,1.5,1.5,2.5c0.5,1.5,0.8,3.1,1.2,4.7c0.2,0.7,0.3,1.4,0.3,2.1c0,1,0,1.9,0,2.9
		c0,1.6-0.2,3.3-0.3,4.9c-0.1-0.1-0.1-0.2-0.2-0.2c-0.2-0.1-0.4-0.3-0.6-0.1c-0.2,0.2-0.1,0.4,0,0.6c0.7,1.3,1.1,2.8,1.9,4.1
		c0.7,1.1,1.2,2.5,2.8,2.9c0.2,0,0.3,0.2,0.5,0c0.2-0.2,0.1-0.4,0.1-0.6c-0.1-0.2-0.2-0.4-0.3-0.5c-0.7-1.1-1.4-2.2-1.9-3.3
		c-0.1-0.3-0.2-0.6-0.4-0.8c-0.7-0.6-0.6-1.4-0.5-2.2c0.1-0.9,0.3-1.7,0.2-2.6c0-0.3-0.1-0.6-0.1-0.8c0-0.3,0-0.6,0-0.8
		c0-1.4,0-2.9-0.1-4.3c0-0.6,0-1.2,0-1.8c0-0.1,0-0.2,0.1-0.3c0.4-0.8,0.8-1.7,1.2-2.6c1.2-2.1,3-2.8,5.3-2.2
		c0.8,0.2,1.6,0.7,2.4,0.9c0.7,0.2,7.1,3.4,6.2,14.5c-0.3,3.2-0.2,6.5-0.2,9.7c0,0.2,0,0.4,0,0.5c0.2,0.5,2.3,3.8,3,4.9
		c0.5,0.8,1,1.7,1.6,2.4c0.1,0.1,0.3,0.3,0.5,0.2c0.2,0,0.2-0.2,0.3-0.4c0.1-0.4-3-5.9-3.9-6.9c-0.3-0.3-0.5-0.7-0.5-1.1
		c0-1.4,0-2.7,0.3-4c0.4-1.5,0.4-3,0.3-4.5c0-0.7,0.2-1,0.9-1.1c0.3,0,0.5,0,0.8,0c1.1-0.2,7.1,1.6,8.8,7.5c1,3.4,0.5,9.9,0.7,12.1
		c0.3,2.7,0.2,5.4,0.6,8.1c0.2,1.8-4.4,48.7-4.9,50.3c-0.2,0.7-0.2,1.4-0.2,2.1c0,0.1,0,0.3-0.1,0.3c-0.2,0-0.2-0.1-0.3-0.2
		c-0.2-0.4-0.4-0.8-0.6-1.2c-0.2-0.7-0.7-1.2-1.1-1.6c-0.2-0.2-0.4-0.3-0.7-0.1c-0.3,0.2-0.3,0.4-0.2,0.7c0.1,0.6,0.3,1.1,0.4,1.7
		c0.1,0.5,0.3,0.9,0.6,1.3c1.2,1.4,6.3,8.4,7.2,10.6c1.2,2.9,8.5,14.7,9.8,17.4c0,0.1,0.1,0.2,0.2,0.3c1.1,1.6,2.3,3.2,3.3,4.9
		c0.2,0.4,0.4,0.8,0.6,1.1c0.2,0.3,0.4,0.5,0.7,0.4C407,682.4,407,682,406.9,681.7z M281.6,573.1c-0.8,1.4-1.8,2.8-3.2,3.7
		c-0.3,0.2-0.7,0.3-1.1,0.4c-0.3,0-0.3-0.1-0.3-0.4c0.2-0.7,0.6-1.3,1.1-1.8c0.9-0.9,2-1.7,3.2-2.3c0.1-0.1,0.3-0.2,0.5-0.1
		C281.9,572.8,281.7,573,281.6,573.1z M277.9,565.9c0.8-0.1,1.5,0.2,2,1c0.5,0.9,1.4,1.7,1.6,2.8c0.3,1.3,0.3,1.3-0.9,1.9
		c-1.9,0.9-3.4,2.3-4.6,4.2c-0.1,0.1-0.1,0.3-0.3,0.3c-0.2,0-0.2-0.2-0.2-0.3c-0.4-1.4-0.8-2.7-1.2-4c-0.2-0.6-0.3-1.3-0.6-1.9
		c-0.3-0.7,0-1.2,0.4-1.7c0.1-0.2,0.3-0.3,0.4-0.5C275.3,566.3,276.5,565.9,277.9,565.9z M332.7,510.6c-1.7,0.8-3.4,1.5-5.4,0.8
		c-0.1,0-0.2-0.1-0.2-0.1c1.5-0.3,2.9-1,4.4-1.4c0.4-0.1,0.7,0,1.1,0c0.2,0,0.3,0.2,0.3,0.3C332.9,510.4,332.8,510.5,332.7,510.6z
		 M332.6,505.9c-0.1,0.7,0,1.4,0.1,2.1c0,0.4-0.1,0.6-0.5,0.6c-0.3,0-0.6,0-0.9,0c-1.5,0-2.9,0.7-4.2,1.4c-0.4,0.3-0.8,0.5-1.4,0.5
		c-0.3,0-0.5-0.1-0.6-0.5c-0.1-0.6-0.2-1.2-0.2-1.9c0-1.2,0.5-2.4,0.8-3.5c0.1-0.3,0.2-0.5,0.5-0.6c1.7-0.5,3.3-0.8,5,0
		c0.3,0.1,0.5,0.3,0.7,0.4C332.4,504.8,332.7,505.2,332.6,505.9z"/>
	<path fill-rule="evenodd" clip-rule="evenodd" fill="#393B41" d="M364.4,656.4c-0.5,0.7-1.2,1.1-1.9,1.7c0.5-0.1,1-0.3,1.5-0.4
		c2-0.6,4.1-1.2,6.1-1.8c1-0.3,2.1-0.3,3.1-0.3c0.2,0,0.4,0.1,0.5,0.2c0.1,0.3-0.3,0.3-0.4,0.3c-1.8,0.5-3.6,1.2-5.5,1.6
		c-2.7,0.7-5.3,1.6-7.7,3.1c-2.1,1.3-4.4,2.4-6.7,3.4c-0.3,0.1-0.6,0.3-0.8-0.1c-0.2-0.3,0-0.6,0.3-0.9c0.1-0.1,0.2-0.2,0.3-0.2
		c1.7-0.8,3.4-1.7,5-2.6c0.7-0.4,1.4-0.8,2.1-1.2c0.3-0.1,0.5-0.3,0.7-0.6C362,657.7,363.2,657,364.4,656.4z"/>
	<path fill-rule="evenodd" clip-rule="evenodd" fill="#393B41" d="M336.8,567.4c-0.4,0.4-0.2,0.8,0,1c1.6,1.7,1.6,3.9,1.9,6
		c0.3,2.3-0.4,4.4-1.4,6.5c-0.4,0.9-0.8,1.8-1.3,2.7c-0.5,1.1-1.1,2.1-1.7,3.1c-0.2,0.3-0.5,0.5-0.8,0.6c-0.2,0.1-0.5,0.1-0.7-0.1
		c-0.2-0.2-0.2-0.4-0.1-0.6c0.6-1.3,1.2-2.5,2-3.7c0.6-1,1.2-1.9,1.8-2.8c0.8-1.3,1-2.7,0.9-4.1c-0.2-2.5-0.6-5-1.3-7.5
		C336.2,568.1,336.4,567.7,336.8,567.4z"/>
	<path fill-rule="evenodd" clip-rule="evenodd" fill="#393B41" d="M326.7,537.9c-1.5,0.1-3.1,0.2-4.8,0.6c-0.5,0.1-0.8,0.3-0.9,0.7
		c-0.2,0.6-0.6,1-0.9,1.5c-0.1,0.2-0.2,0.5-0.5,0.4c-0.3-0.1-0.1-0.4-0.1-0.6c0.2-1.8,0.4-3.6,0.8-5.3c0.2-0.7,0.3-1.5,0.6-2.2
		c0.1-0.1,0.1-0.3,0.3-0.3c0.2,0,0.3,0.2,0.3,0.4c0,0.1,0,0.2,0,0.2c-0.3,1.3-0.4,2.6-0.6,3.9c0,0.1,0,0.3,0,0.4
		c0,0.3,0.2,0.4,0.4,0.2c1.1-0.7,2.4-0.7,3.6-0.9c2-0.3,4-0.5,6-0.5c0.4,0,0.9,0,1.3,0.1c0.1,0,0.3,0.1,0.3,0.2
		c0,0.2-0.1,0.2-0.3,0.2c-1,0.4-2,0.5-3,0.6C328.4,537.7,327.6,537.8,326.7,537.9z"/>
	<path fill-rule="evenodd" clip-rule="evenodd" fill="#393B41" d="M362.9,578.5c-0.2,2.1-0.7,4.1-1.5,6.1c-0.2,0.5-0.5,1-0.6,1.6
		c-0.2,0.8-0.8,1.2-1.3,1.7c-0.2,0.2-0.4,0.1-0.4-0.2c0-0.2,0-0.5,0.1-0.7c1-2.9,2-5.8,3.1-8.6c0,0,0-0.1,0-0.1
		c0.1-0.2,0.2-0.4,0.4-0.4c0.3,0,0.1,0.3,0.1,0.5C362.9,578.4,362.9,578.5,362.9,578.5z"/>
	<path fill-rule="evenodd" clip-rule="evenodd" fill="#393B41" d="M359.1,656.8c0-0.1,0.1-0.1,0.1-0.2c1.7-1.4,3.6-2.6,5.9-2.9
		c1.3-0.2,2.5-0.5,3.7-1.1c0.4-0.2,0.9-0.4,1.3-0.4c0.2,0,0.4-0.1,0.5,0.2c0.1,0.2-0.2,0.2-0.3,0.3c-1.3,0.6-2.7,1.1-4,1.6
		c-2.2,0.9-4.5,1.5-6.7,2.4C359.4,656.8,359.3,656.9,359.1,656.8z"/>
	<path fill-rule="evenodd" clip-rule="evenodd" fill="#393B41" d="M323.9,542.2c0.9,0.2,1.7,0.1,2.5-0.1c1.7-0.3,3.3-0.7,4.8-1.3
		c0.1,0,0.2-0.1,0.3-0.1c0.2,0,0.4-0.2,0.5,0.1c0.1,0.2-0.1,0.3-0.3,0.4c-1.3,1.1-2.9,1.4-4.6,1.6c-0.9,0.1-1.8,0.2-2.7-0.1
		C324.3,542.7,324.1,542.6,323.9,542.2z"/>
	<path fill-rule="evenodd" clip-rule="evenodd" fill="#393B41" d="M279.7,588.2c0.7-1.1,1.6-2,2.5-2.9c0.7-0.7,1.3-1.5,2.1-2
		c0.2-0.1,0.3-0.4,0.6-0.2c0.2,0.3,0.2,0.5-0.1,0.7c-1,1-1.9,2-2.9,3c-0.5,0.5-0.9,1.1-1.6,1.3C280.1,588.2,279.9,588.3,279.7,588.2
		z"/>
	<path fill-rule="evenodd" clip-rule="evenodd" fill="#393B41" d="M376.7,585.8c0.4,3.1-0.4,5.9-1.9,8.4
		C375.4,591.4,376.3,588.7,376.7,585.8z"/>
	<path fill-rule="evenodd" clip-rule="evenodd" fill="#393B41" d="M335.3,541c0.1,0.9-0.2,1.6-0.8,2.2c-0.3,0.3-0.5,0.8-0.8,1.2
		c-0.1,0.2-0.2,0.4-0.5,0.3c-0.2-0.1,0-0.3,0-0.5c0.2-1.3,0.8-2.5,1.2-3.8c0.1-0.2,0.1-0.5,0.4-0.4c0.2,0,0.3,0.3,0.4,0.5
		C335.3,540.7,335.3,540.9,335.3,541z"/>
	<path fill-rule="evenodd" clip-rule="evenodd" fill="#393B41" d="M360.5,574c1.4,1.2,2,3,1.5,4.7c0,0.1-0.1,0.2-0.2,0.2
		c-0.1,0-0.2-0.1-0.2-0.2c-0.1-0.2-0.1-0.4-0.1-0.6c-0.1-1.2-0.4-2.3-0.9-3.3C360.4,574.5,360.4,574.3,360.5,574z"/>
	<path fill-rule="evenodd" clip-rule="evenodd" fill="#393B41" d="M326.6,540.2c0.6-0.1,1.2-0.3,1.7-0.4c1.1-0.3,2.2-0.5,3.3-0.8
		c0.2-0.1,0.4-0.1,0.5,0.1c0.1,0.3-0.1,0.3-0.3,0.4c-1.2,0.7-2.6,0.8-3.9,1C327.4,540.5,327,540.4,326.6,540.2z"/>
	<path fill-rule="evenodd" clip-rule="evenodd" fill="#393B41" d="M326.9,582.1c0,0.1,0,0.2-0.1,0.3c-0.2,0.1-0.3,0-0.3-0.2
		c-0.2-0.4-0.4-0.8-0.5-1.2c-0.3-0.7-0.6-1.5-0.8-2.3c-0.1-0.2-0.2-0.4,0.1-0.5c0.2-0.1,0.4,0.1,0.5,0.3c0.6,0.8,0.7,1.8,1,2.7
		C326.8,581.5,326.8,581.8,326.9,582.1z"/>
	<path fill-rule="evenodd" clip-rule="evenodd" fill="#393B41" d="M326,543.8c0.3-0.2,0.5-0.1,0.7,0c1,0.1,2,0,3-0.3
		c0.2-0.1,0.5-0.3,0.6,0c0.1,0.3-0.2,0.3-0.4,0.5c-1.1,0.6-2.2,0.8-3.4,0.3C326.3,544.1,326.1,544,326,543.8z"/>
	<path fill-rule="evenodd" clip-rule="evenodd" fill="#393B41" d="M329,535.6c-1.3,0.5-2.6,0.1-3.8,0.1
		C326.4,535.4,327.6,535.3,329,535.6z"/>
	<path fill-rule="evenodd" clip-rule="evenodd" fill="none" d="M277.9,565.9c0.8-0.1,1.5,0.2,2,1c0.5,0.9,1.4,1.7,1.6,2.8
		c0.3,1.3,0.3,1.3-0.9,1.9c-1.9,0.9-3.4,2.3-4.6,4.2c-0.1,0.1-0.1,0.3-0.3,0.3c-0.2,0-0.2-0.2-0.2-0.3c-0.4-1.4-0.8-2.7-1.2-4
		c-0.2-0.6-0.3-1.3-0.6-1.9c-0.3-0.7,0-1.2,0.4-1.7c0.1-0.2,0.3-0.3,0.4-0.5C275.3,566.3,276.5,565.9,277.9,565.9z"/>
	<path fill-rule="evenodd" clip-rule="evenodd" fill="none" d="M331.2,508.6c-1.5,0-2.9,0.7-4.2,1.4c-0.4,0.3-0.8,0.5-1.4,0.5
		c-0.3,0-0.5-0.1-0.6-0.5c-0.1-0.6-0.2-1.2-0.2-1.9c0-1.2,0.5-2.4,0.8-3.5c0.1-0.3,0.2-0.5,0.5-0.6c1.7-0.5,3.3-0.8,5,0
		c0.3,0.1,0.5,0.3,0.7,0.4c0.5,0.3,0.8,0.8,0.8,1.5c-0.1,0.7,0,1.4,0.1,2.1c0,0.4-0.1,0.6-0.5,0.6
		C331.8,508.6,331.5,508.6,331.2,508.6z"/>
	<path fill-rule="evenodd" clip-rule="evenodd" fill="none" d="M277.3,577.3c-0.3,0-0.3-0.1-0.3-0.4c0.2-0.7,0.6-1.3,1.1-1.8
		c0.9-0.9,2-1.7,3.2-2.3c0.1-0.1,0.3-0.2,0.5-0.1c0.1,0.1,0,0.3-0.1,0.4c-0.8,1.4-1.8,2.8-3.2,3.7
		C278,577.1,277.6,577.2,277.3,577.3z"/>
	<path fill-rule="evenodd" clip-rule="evenodd" fill="none" d="M327.1,511.2c1.5-0.3,2.9-1,4.4-1.4c0.4-0.1,0.7,0,1.1,0
		c0.2,0,0.3,0.2,0.3,0.3c0,0.2,0,0.3-0.2,0.4c-1.7,0.8-3.4,1.5-5.4,0.8C327.3,511.3,327.2,511.3,327.1,511.2z"/>
</g>
</svg>
